<svg width="389" height="40" viewBox="0 0 389 40" fill="none" xmlns="http://www.w3.org/2000/svg">
<path d="M28.4047 29.8561L28.5775 29.583L23.9813 26.2741L23.7854 26.5795C22.9974 27.8341 21.8853 28.8526 20.5665 29.5276C19.1452 30.223 17.5787 30.5698 15.9968 30.5396C14.697 30.5547 13.4093 30.2898 12.2211 29.7628C11.097 29.2555 10.0903 28.5205 9.26495 27.6041C8.40705 26.6339 7.74523 25.5068 7.31605 24.2849C6.37533 21.5337 6.37533 18.5479 7.31605 15.7967C7.75108 14.5655 8.42076 13.4305 9.288 12.4544C10.123 11.5276 11.1368 10.7792 12.2684 10.2542C13.4387 9.71775 14.7129 9.44584 16.0002 9.45785C17.5423 9.43101 19.068 9.77822 20.4466 10.4698C21.7486 11.1544 22.8459 12.1721 23.6264 13.419L23.8211 13.7244L24.115 13.5135L28.1131 10.6461L28.3828 10.4525L28.1984 10.1759C26.9281 8.24098 25.1819 6.66503 23.1273 5.59925C21.08 4.61348 18.8471 4.0724 16.5756 4.01162C14.3041 3.95083 12.0455 4.37172 9.94839 5.24659C8.10554 6.04471 6.43622 7.19491 5.03409 8.63266C3.62064 10.104 2.50595 11.8356 1.75174 13.7314C0.945221 15.7436 0.536982 17.8932 0.549674 20.0609C0.528104 22.2432 0.919135 24.4099 1.70218 26.447C2.42758 28.327 3.51542 30.0461 4.90385 31.5065C6.28438 32.9355 7.94636 34.0626 9.78473 34.8165C11.7429 35.6139 13.8399 36.0142 15.9541 35.9944C18.4837 36.0326 20.9881 35.4884 23.2737 34.4039C25.3763 33.3986 27.1542 31.8228 28.4047 29.8561Z" fill="#0C0C0C"/>
<path d="M55.0333 35.2694V30.2583H43.076V22.1412H53.7782V17.1336H43.076V9.74367H54.6264V4.73486H37.5439V35.2694H55.0333Z" fill="#0C0C0C"/>
<path d="M106.438 9.74367V35.2694H112.294V9.74367H120.246V4.73486H98.4854V9.74252L106.438 9.74367Z" fill="#0C0C0C"/>
<path d="M144.668 35.2694H150.873L144.593 23.6291C146.522 22.9759 148.194 21.7271 149.368 20.0625C150.541 18.398 151.155 16.4038 151.122 14.3675C151.122 8.60495 146.858 4.73828 140.519 4.73828H128.533V35.2694H134.065V24.2975H138.868L144.668 35.2694ZM145.459 14.4862C145.459 16.782 144.086 19.2345 140.232 19.2345H134.065V9.74478H140.233C144.085 9.74478 145.459 12.1927 145.459 14.4862Z" fill="#0C0C0C"/>
<path d="M181.728 35.2694H187.886L175.574 4.73486H170.184L157.831 35.2694H163.869L166.454 28.4039H179.144L181.728 35.2694ZM177.234 23.3986H168.372L172.802 11.6315L177.234 23.3986Z" fill="#0C0C0C"/>
<path d="M201.572 30.2571V4.729H195.715V35.2705H215.573V30.2571H201.572Z" fill="#0C0C0C"/>
<path d="M84.5513 4.73486V25.729L69.6447 4.73486H64.2383V35.2694H69.8925V14.273L84.7979 35.2694H90.2055V4.73486H84.5513Z" fill="#0C0C0C"/>
<path d="M349.869 4.73438V22.2456C350.008 24.4465 349.372 26.6264 348.07 28.4069C347.423 29.081 346.647 29.6177 345.788 29.9851C344.929 30.3524 344.004 30.5427 343.07 30.5448C342.135 30.5468 341.21 30.3605 340.349 29.997C339.488 29.6334 338.71 29.1001 338.06 28.4288C336.777 26.6325 336.156 24.448 336.3 22.2456V4.73438H330.444V22.5245C330.419 24.4151 330.712 26.2966 331.311 28.09C331.845 29.6703 332.702 31.1224 333.827 32.3543C334.941 33.5457 336.309 34.472 337.829 35.065C339.499 35.7055 341.276 36.0223 343.064 35.9985C344.842 36.0199 346.607 35.6958 348.262 35.0442C349.782 34.4357 351.153 33.505 352.279 32.3162C353.417 31.0867 354.287 29.6347 354.836 28.0519C355.448 26.2727 355.748 24.4013 355.724 22.5199V4.73438H349.869Z" fill="#AAAAAA"/>
<path d="M317.011 8.69252C315.553 7.24026 313.832 6.07794 311.94 5.26727C309.977 4.42526 307.862 3.99646 305.726 4.00757C303.571 3.99548 301.436 4.42415 299.453 5.26727C297.54 6.08203 295.798 7.25037 294.318 8.71096C292.843 10.1768 291.666 11.914 290.851 13.827C290.02 15.7965 289.592 17.9127 289.592 20.0505C289.592 22.1883 290.02 24.3045 290.851 26.2741C291.662 28.1658 292.824 29.8865 294.275 31.3451C295.731 32.7953 297.453 33.9513 299.347 34.7496C301.326 35.5713 303.449 35.9925 305.592 35.9889C307.735 35.9854 309.856 35.5571 311.833 34.7289C313.742 33.9169 315.482 32.7565 316.966 31.3071C318.444 29.8506 319.622 28.1188 320.434 26.2095C321.265 24.2399 321.694 22.1238 321.694 19.986C321.694 17.8481 321.265 15.732 320.434 13.7624C319.624 11.8712 318.462 10.1508 317.011 8.69252ZM315.638 20.0205C315.649 21.4216 315.383 22.8111 314.857 24.1096C314.351 25.3464 313.621 26.4794 312.704 27.4519C311.801 28.4078 310.72 29.1772 309.521 29.7166C308.3 30.2559 306.979 30.5344 305.644 30.5344C304.309 30.5344 302.989 30.2559 301.768 29.7166C300.569 29.1772 299.487 28.4078 298.585 27.4519C297.668 26.4798 296.938 25.3467 296.432 24.1096C295.905 22.8112 295.64 21.4217 295.65 20.0205C295.645 18.619 295.911 17.2297 296.433 15.9291C297.417 13.4317 299.33 11.4128 301.771 10.2968C302.989 9.74528 304.309 9.45996 305.646 9.45996C306.982 9.45996 308.303 9.74528 309.52 10.2968C311.961 11.4128 313.874 13.4317 314.858 15.9291C315.38 17.2299 315.645 18.6192 315.638 20.0205Z" fill="#AAAAAA"/>
<path d="M238.119 18.3031V23.3108H245.979C245.824 24.2733 245.522 25.2061 245.083 26.0768C244.627 26.9766 244.01 27.7849 243.262 28.4613C242.508 29.1294 241.634 29.6483 240.687 29.9907C239.65 30.3616 238.556 30.5458 237.454 30.5347C236.093 30.5479 234.744 30.2758 233.494 29.736C232.31 29.2198 231.243 28.4704 230.355 27.5324C229.45 26.5626 228.741 25.4279 228.264 24.1901C227.246 21.4722 227.246 18.4775 228.264 15.7595C228.741 14.5218 229.45 13.3871 230.355 12.4172C231.24 11.4827 232.308 10.7401 233.492 10.2355C234.746 9.70796 236.095 9.44244 237.456 9.4553C239.032 9.44187 240.587 9.82385 241.978 10.5663C243.407 11.3555 244.626 12.475 245.533 13.8314L245.732 14.1183L246.015 13.9144L250.013 11.0469L250.276 10.8579L250.103 10.5836C248.814 8.52267 246.998 6.84297 244.843 5.71771C242.571 4.55402 240.048 3.96482 237.495 4.00162C235.318 3.98353 233.16 4.39719 231.144 5.21867C229.241 5.99903 227.514 7.15227 226.063 8.61051C224.576 10.1205 223.403 11.9092 222.61 13.8739C221.816 15.8387 221.419 17.9408 221.44 20.0595C221.421 22.2302 221.835 24.3828 222.658 26.3914C223.436 28.2773 224.58 29.99 226.025 31.4302C227.484 32.8636 229.208 33.9989 231.102 34.7725C233.118 35.5936 235.276 36.0073 237.453 35.9895C239.532 36.0156 241.594 35.6289 243.522 34.852C245.295 34.1233 246.891 33.022 248.2 31.6227C249.53 30.1691 250.55 28.4597 251.197 26.5989C251.918 24.51 252.274 22.3121 252.247 20.1022V18.3031H238.119Z" fill="#AAAAAA"/>
<path d="M378.331 4.73438H366.345V35.269H371.877V24.2971H378.331C379.769 24.3634 381.205 24.1428 382.557 23.6481C383.909 23.1534 385.148 22.3946 386.204 21.4158C387.102 20.4803 387.806 19.376 388.275 18.1667C388.744 16.9574 388.969 15.6671 388.936 14.3705C388.934 8.6045 384.678 4.73438 378.331 4.73438ZM371.877 9.74088H378.045C381.899 9.74088 383.272 12.1911 383.272 14.4823C383.272 16.7735 381.899 19.2306 378.045 19.2306H371.877V9.74088Z" fill="#AAAAAA"/>
<path d="M283.1 14.3626C283.1 8.60007 278.836 4.7334 272.497 4.7334H260.511V35.2691H266.043V24.2972H270.849L276.65 35.2691H282.856L276.576 23.6288C278.505 22.9748 280.176 21.7249 281.349 20.0595C282.521 18.3941 283.134 16.3992 283.1 14.3626ZM266.043 9.7399H272.211C276.065 9.7399 277.438 12.189 277.438 14.4825C277.438 16.776 276.065 19.2308 272.211 19.2308H266.043V9.7399Z" fill="#AAAAAA"/>
</svg>
