<svg xmlns="http://www.w3.org/2000/svg" data-name="Layer 2" viewBox="0 0 551.06 76.06"><g><path d="m0 74.62 43.37-.08.74-7.3-35.75.07 2.98-29.28 35.75-.07.74-7.3-35.75.07 2.38-23.35 36.06-.07.75-7.29L7.59.1zm78.72-.13h1.66L121.05.04h-8.27L81.3 57.57 61.93.15l-8.28.02L78.72 74.5zm37.2.18 43.36-.08.74-7.29-35.75.06 2.98-29.28 35.75-.06.74-7.29-35.75.06 2.38-23.35 36.06-.06.74-7.29-43.68.08-7.59 74.51zm46.13.02 15.04-.03 7.74-15.32 31.01-.06 4.39 15.29 15.03-.03L213.59.31l-14.67.03zm49.83-29.18-20.33.04 12.79-25.52 7.54 25.49zm25.71 29.22 14.53-.03 4.98-48.95 27.63 48.89 13.97-.03L306.3 0l-14.53.03-5 49.1L259.12.09l-13.93.03zm67.48.12 17.5-.03c9.9-.02 16.92-.64 21.06-1.87s8.09-3.43 11.86-6.62 6.88-7.2 9.32-12.03c2.45-4.83 3.96-10.12 4.55-15.88.82-8.09-.2-15.17-3.08-21.23S359.4 6.76 354.27 4.08Q346.575.06 329.91.09l-17.24.03-7.61 74.74zm25.6-61.06c9.04-.02 15.41 1.94 19.1 5.86 4.09 4.37 5.73 10.52 4.93 18.45-.52 5.15-1.92 9.5-4.18 13.03-2.27 3.53-4.97 6.05-8.12 7.54-3.15 1.5-8.05 2.25-14.7 2.26h-6.76l4.8-47.14h4.94zm41.56 60.92 20.95-.04c7.54-.01 13.75-2.09 18.65-6.24s7.65-9.21 8.26-15.19c.3-2.94-.02-5.67-.95-8.18s-2.38-4.66-4.33-6.43c-1.96-1.77-4.85-3.31-8.68-4.62q5.055-2.55 7.95-6.63c1.93-2.72 3.06-5.74 3.4-9.05.36-3.55-.25-6.77-1.84-9.68-1.59-2.9-3.94-5.05-7.04-6.45C405.49.81 400.92.11 394.87.12l-15.04.03-7.59 74.57zm23.15-67.29c5.34-.01 9.13.95 11.37 2.89s3.19 4.62 2.85 8.03c-.26 2.53-1.22 4.84-2.89 6.92s-3.8 3.61-6.39 4.57c-2.59.97-6.54 1.46-11.84 1.47h-4.36l2.43-23.87 8.83-.02zm-7.71 31.38c6.44-.01 10.93.28 13.47.89 3.78.9 6.66 2.59 8.62 5.05s2.78 5.35 2.44 8.66c-.27 2.64-1.31 5.09-3.11 7.35-1.81 2.27-4.06 3.93-6.77 5-2.7 1.07-6.85 1.61-12.42 1.62l-9.45.02 2.91-28.59zm57.89-33.49c-6.27 3.37-11.42 8.01-15.45 13.94s-6.4 12.36-7.11 19.3c-1.06 10.4 1.8 19.26 8.59 26.58 6.79 7.31 15.66 10.96 26.61 10.94 10.82-.02 20.36-3.72 28.62-11.09q12.405-11.07 14.01-26.91c1.09-10.67-1.77-19.64-8.56-26.92S476.49.24 465.31.26c-6.9.01-13.48 1.7-19.75 5.06zm34.72 6.1q7.02 4.17 10.41 11.1 3.39 6.945 2.52 15.54-.885 8.64-5.7 15.72c-3.21 4.72-7.39 8.44-12.55 11.17-5.15 2.73-10.6 4.09-16.33 4.1-8.58.01-15.61-2.92-21.09-8.82s-7.79-13.14-6.91-21.72c.59-5.8 2.5-11.05 5.73-15.77s7.43-8.47 12.61-11.27q7.77-4.185 15.96-4.2 8.34-.015 15.36 4.14z" class="cls-1"></path><path d="m515.44 39.08-3.63 35.61h7.51l3.63-35.62L551.06.12l-8.81.02-22.32 30.77L503.56.21l-8.76.02 20.65 38.86z" class="cls-1"></path></g></svg>