<?xml version="1.0" encoding="UTF-8"?>
<!-- Generator: Adobe Illustrator 13.0.2, SVG Export Plug-In  -->
<!DOCTYPE svg PUBLIC "-//W3C//DTD SVG 1.1//EN" "http://www.w3.org/Graphics/SVG/1.1/DTD/svg11.dtd" [
	<!ENTITY ns_flows "http://ns.adobe.com/Flows/1.0/">
]>
<svg version="1.1" xmlns="http://www.w3.org/2000/svg" xmlns:xlink="http://www.w3.org/1999/xlink" xmlns:a="http://ns.adobe.com/AdobeSVGViewerExtensions/3.0/" x="0px" y="0px" width="125px" height="63px" viewBox="-0.295 -0.15 125 63" enable-background="new -0.295 -0.15 125 63" xml:space="preserve">
<defs>
</defs>
<path fill="#D81921" d="M0.022,59.624v-0.671H0.64v-4.766c0-0.166-0.082-0.249-0.256-0.249H0v-0.67h2.344v0.67H1.713v4.767  c0,0.176,0.115,0.248,0.258,0.248h0.393v0.671H0.022 M6.058,59.624h2.053v-0.599H7.8c-0.143,0-0.236-0.061-0.236-0.227v-2.579  c0-0.433-0.063-0.816-0.278-1.073c-0.228-0.28-0.568-0.385-0.94-0.385c-0.557,0-1.104,0.241-1.486,0.611v-0.309  c0-0.176-0.082-0.239-0.248-0.239c-0.328,0-0.866,0.074-1.413,0.074l0.124,0.608H3.89v3.519H3.354v0.599h2.053v-0.599H5.108  c-0.186,0-0.248-0.083-0.248-0.259v-2.661c0.299-0.247,0.722-0.496,1.125-0.496c0.423,0,0.608,0.226,0.608,0.692v2.724H6.058V59.624  z M10.659,59.747c0.301,0,0.599-0.084,0.836-0.186v-0.639c-0.164,0.062-0.402,0.103-0.588,0.103c-0.453,0-0.691-0.216-0.691-0.958  v-2.561h1.042l-0.124-0.608h-0.939v-1.177l-0.763,0.135c-0.135,0.019-0.186,0.114-0.186,0.298v0.744H8.658v0.608h0.588v2.509  c0,0.514,0.041,0.886,0.227,1.186C9.72,59.593,10.154,59.747,10.659,59.747z M14.219,55.497c0.454,0,0.795,0.371,0.795,1.154  l-0.01,0.176h-1.817C13.27,55.971,13.641,55.497,14.219,55.497z M16.015,57.395c0.01-0.092,0.01-0.217,0.01-0.309  c0-1.632-0.866-2.325-1.796-2.325c-0.607,0-1.093,0.23-1.433,0.591c-0.443,0.463-0.66,1.166-0.66,1.928  c0,1.353,0.568,2.478,2.052,2.478c0.672,0,1.228-0.289,1.621-0.692L15.5,58.602c-0.291,0.237-0.671,0.434-1.105,0.434  c-0.671,0-1.208-0.547-1.228-1.641H16.015z M19.564,55.589c0.114,0,0.227,0,0.363,0.02v-0.558c0-0.204-0.125-0.29-0.301-0.29  c-0.587,0-0.856,0.26-1.259,0.653v-0.351c0-0.165-0.082-0.239-0.247-0.239c-0.33,0-0.867,0.074-1.413,0.074l0.124,0.608h0.567v3.519  h-0.537v0.599h2.053v-0.599h-0.299c-0.165,0-0.248-0.083-0.248-0.259v-2.649C18.604,55.868,18.945,55.599,19.564,55.589z   M22.97,59.737c0.805,0,1.588-0.363,2.093-0.836l-0.299-0.567c-0.412,0.299-0.97,0.588-1.567,0.588  c-0.992,0-1.662-0.733-1.662-2.559c0-1.361,0.547-2.415,1.599-2.415c0.629,0,1.033,0.382,1.115,0.918l0.051,0.352  c0.031,0.196,0.155,0.247,0.3,0.247h0.32v-2.197h-0.537l-0.052,0.361c-0.268-0.27-0.722-0.486-1.31-0.486  c-1.61,0-2.631,1.405-2.631,3.384C20.39,58.614,21.401,59.737,22.97,59.737z M27.871,55.506c0.918,0,1.011,1.061,1.011,1.747  c0,0.71-0.093,1.763-1.042,1.763c-0.908,0-1.022-1.064-1.022-1.746C26.818,56.558,26.932,55.506,27.871,55.506z M27.84,59.758  c1.496,0,2.073-1.189,2.073-2.538c0-1.362-0.556-2.459-2.053-2.459c-1.495,0-2.073,1.169-2.073,2.52  C25.787,58.633,26.343,59.758,27.84,59.758z M33.443,59.624h2.053v-0.599h-0.31c-0.144,0-0.238-0.061-0.238-0.227v-2.579  c0-0.433-0.061-0.816-0.278-1.073c-0.226-0.28-0.568-0.385-0.94-0.385c-0.555,0-1.103,0.241-1.484,0.611v-0.309  c0-0.176-0.082-0.239-0.248-0.239c-0.33,0-0.868,0.074-1.413,0.074l0.123,0.608h0.567v3.519h-0.536v0.599h2.053v-0.599h-0.298  c-0.187,0-0.248-0.083-0.248-0.259v-2.661c0.299-0.247,0.721-0.496,1.124-0.496c0.422,0,0.609,0.226,0.609,0.692v2.724h-0.536  V59.624z M38.044,59.747c0.3,0,0.599-0.084,0.835-0.186v-0.639c-0.164,0.062-0.401,0.103-0.587,0.103  c-0.454,0-0.691-0.216-0.691-0.958v-2.561h1.042l-0.125-0.608H37.58v-1.177l-0.764,0.135c-0.133,0.019-0.186,0.114-0.186,0.298  v0.744h-0.587v0.608h0.587v2.509c0,0.514,0.042,0.886,0.227,1.186C37.106,59.593,37.539,59.747,38.044,59.747z M40.603,54.134  c0.32,0,0.589-0.259,0.589-0.577c0-0.321-0.269-0.578-0.589-0.578c-0.319,0-0.578,0.257-0.578,0.578  C40.025,53.875,40.284,54.134,40.603,54.134z M39.603,59.624h2.053v-0.599h-0.3c-0.186,0-0.248-0.083-0.248-0.259v-3.703  c0-0.165-0.082-0.239-0.248-0.239c-0.33,0-0.865,0.074-1.413,0.074l0.125,0.608h0.568v3.519h-0.537V59.624z M45.175,59.624h2.053  v-0.599h-0.311c-0.143,0-0.236-0.061-0.236-0.227v-2.579c0-0.433-0.062-0.816-0.279-1.073c-0.226-0.28-0.568-0.385-0.939-0.385  c-0.558,0-1.103,0.241-1.486,0.611v-0.309c0-0.176-0.083-0.239-0.247-0.239c-0.33,0-0.867,0.074-1.415,0.074l0.124,0.608h0.568  v3.519h-0.536v0.599h2.053v-0.599h-0.299c-0.185,0-0.248-0.083-0.248-0.259v-2.661c0.299-0.247,0.722-0.496,1.125-0.496  c0.422,0,0.609,0.226,0.609,0.692v2.724h-0.536V59.624z M50.044,55.497c0.456,0,0.795,0.371,0.795,1.154l-0.01,0.176h-1.816  C49.095,55.971,49.467,55.497,50.044,55.497z M51.84,57.395c0.011-0.092,0.011-0.216,0.011-0.309c0-1.632-0.868-2.325-1.797-2.325  c-0.607,0-1.093,0.23-1.433,0.591c-0.445,0.463-0.66,1.166-0.66,1.929c0,1.352,0.568,2.477,2.054,2.477  c0.67,0,1.227-0.289,1.618-0.691l-0.308-0.465c-0.289,0.237-0.672,0.434-1.104,0.434c-0.672,0-1.208-0.547-1.228-1.641H51.84z   M55.391,59.624h2.051v-0.599h-0.31c-0.142,0-0.237-0.061-0.237-0.227v-2.579c0-0.433-0.06-0.816-0.277-1.073  c-0.228-0.28-0.568-0.385-0.94-0.385c-0.557,0-1.104,0.241-1.485,0.611v-0.309c0-0.176-0.083-0.239-0.249-0.239  c-0.328,0-0.867,0.074-1.413,0.074l0.123,0.608h0.568v3.519h-0.536v0.599h2.052v-0.599H54.44c-0.185,0-0.247-0.083-0.247-0.259  v-2.661c0.298-0.247,0.721-0.496,1.125-0.496c0.422,0,0.608,0.226,0.608,0.692v2.724h-0.535V59.624z M59.991,59.747  c0.299,0,0.598-0.084,0.836-0.186v-0.639c-0.164,0.062-0.402,0.103-0.587,0.103c-0.456,0-0.693-0.216-0.693-0.958v-2.561h1.042  l-0.122-0.608h-0.94v-1.177l-0.763,0.135c-0.135,0.019-0.186,0.114-0.186,0.298v0.744h-0.589v0.608h0.589v2.509  c0,0.514,0.041,0.886,0.225,1.186C59.052,59.593,59.487,59.747,59.991,59.747z M63.964,57.27v1.373  c-0.165,0.206-0.464,0.362-0.775,0.362c-0.505,0-0.732-0.34-0.732-0.775C62.457,57.549,63.064,57.281,63.964,57.27z M64.737,59.624  h0.805v-0.599H65.17c-0.153,0-0.235-0.072-0.235-0.249v-2.34c0-1.323-0.735-1.675-1.714-1.675c-0.372,0-0.888,0.095-1.403,0.344  v0.681c0.393-0.197,0.846-0.332,1.279-0.332c0.289,0,0.597,0.093,0.733,0.331c0.094,0.165,0.134,0.393,0.134,0.733v0.133  c-1.332,0-2.508,0.444-2.508,1.662c0,0.907,0.579,1.445,1.487,1.445c0.505,0,0.908-0.249,1.145-0.485  C64.191,59.532,64.438,59.624,64.737,59.624z M66.245,59.624h2.052v-0.599h-0.3c-0.184,0-0.246-0.083-0.246-0.259v-6.014  c0-0.166-0.082-0.238-0.247-0.238c-0.332,0-0.869,0.072-1.416,0.072l0.125,0.609h0.567v5.83h-0.535V59.624z M74.592,59.624h2.342  v-0.671H76.54c-0.143,0-0.257-0.072-0.257-0.248v-4.767h0.631v-0.67H74.57v0.67h0.383c0.175,0,0.256,0.083,0.256,0.249v1.907h-2.372  v-2.156h0.63v-0.67h-2.343v0.67h0.383c0.176,0,0.258,0.083,0.258,0.249v4.766h-0.62v0.671h2.344v-0.671h-0.394  c-0.143,0-0.258-0.072-0.258-0.248v-1.878h2.372v2.126h-0.617V59.624z M79.905,55.506c0.919,0,1.012,1.061,1.012,1.747  c0,0.71-0.093,1.763-1.042,1.763c-0.909,0-1.022-1.064-1.022-1.746C78.853,56.558,78.966,55.506,79.905,55.506z M79.875,59.758  c1.495,0,2.074-1.189,2.074-2.538c0-1.362-0.557-2.459-2.053-2.459c-1.497,0-2.075,1.169-2.075,2.52  C77.821,58.633,78.379,59.758,79.875,59.758z M84.508,59.747c0.298,0,0.599-0.084,0.835-0.186v-0.639  c-0.165,0.062-0.402,0.103-0.587,0.103c-0.455,0-0.692-0.216-0.692-0.958v-2.561h1.043l-0.125-0.608h-0.937v-1.177l-0.764,0.135  c-0.135,0.019-0.187,0.114-0.187,0.298v0.744h-0.588v0.608h0.588v2.509c0,0.514,0.041,0.886,0.227,1.186  C83.569,59.593,84.003,59.747,84.508,59.747z M88.067,55.497c0.454,0,0.794,0.371,0.794,1.154l-0.009,0.176h-1.817  C87.118,55.971,87.489,55.497,88.067,55.497z M89.864,57.395c0.009-0.092,0.009-0.216,0.009-0.309c0-1.632-0.866-2.325-1.796-2.325  c-0.608,0-1.094,0.23-1.432,0.591c-0.445,0.463-0.662,1.166-0.662,1.929c0,1.352,0.569,2.477,2.054,2.477  c0.672,0,1.227-0.289,1.621-0.691l-0.311-0.465c-0.29,0.237-0.67,0.434-1.104,0.434c-0.671,0-1.207-0.547-1.227-1.641H89.864z   M90.658,59.624h2.051v-0.599h-0.298c-0.186,0-0.248-0.083-0.248-0.259v-6.014c0-0.166-0.081-0.238-0.246-0.238  c-0.331,0-0.866,0.072-1.415,0.072l0.125,0.609h0.568v5.83h-0.537V59.624z M95.31,59.758c1.032,0,1.589-0.65,1.589-1.362  c0-0.67-0.329-1.074-1.093-1.393l-0.642-0.268c-0.451-0.197-0.668-0.392-0.668-0.712c0-0.352,0.237-0.609,0.7-0.609  c0.497,0,0.806,0.329,0.888,0.805l0.042,0.227c0.022,0.121,0.113,0.196,0.237,0.196h0.331v-1.744h-0.546l-0.042,0.257  c-0.156-0.206-0.526-0.394-1.044-0.394c-0.855,0-1.484,0.548-1.484,1.344c0,0.64,0.309,1.115,1.062,1.403l0.639,0.248  c0.455,0.175,0.681,0.37,0.681,0.712c0,0.308-0.259,0.599-0.805,0.599c-0.515,0-0.887-0.291-0.959-0.774l-0.042-0.268  c-0.02-0.125-0.113-0.197-0.237-0.197h-0.351v1.796h0.547l0.032-0.29C94.372,59.581,94.824,59.758,95.31,59.758z M104.577,57.29  h0.514v-0.618h-2.187v0.618h0.351c0.177,0,0.247,0.032,0.247,0.259v1.116c-0.236,0.155-0.587,0.299-1.041,0.299  c-0.959,0-1.662-0.775-1.662-2.488c0-1.661,0.764-2.528,1.746-2.528c0.585,0,1.051,0.288,1.174,0.774l0.114,0.424  c0.042,0.134,0.146,0.246,0.259,0.246h0.351v-2.124h-0.547l-0.071,0.39c-0.218-0.246-0.704-0.515-1.384-0.515  c-1.476,0-2.786,1.146-2.786,3.395c0,1.919,0.929,3.199,2.588,3.199c0.578,0,1.209-0.228,1.466-0.413l0.175,0.3h0.693V57.29z   M108.569,55.589c0.114,0,0.229,0,0.362,0.02v-0.558c0-0.204-0.124-0.29-0.299-0.29c-0.588,0-0.857,0.26-1.26,0.653v-0.351  c0-0.165-0.082-0.239-0.246-0.239c-0.331,0-0.868,0.074-1.414,0.074l0.124,0.608h0.567v3.519h-0.537v0.599h2.054v-0.599h-0.299  c-0.166,0-0.249-0.083-0.249-0.259v-2.649C107.612,55.868,107.951,55.599,108.569,55.589z M111.469,55.506  c0.919,0,1.012,1.061,1.012,1.747c0,0.71-0.093,1.763-1.042,1.763c-0.909,0-1.022-1.064-1.022-1.746  C110.417,56.558,110.53,55.506,111.469,55.506z M111.439,59.758c1.496,0,2.075-1.189,2.075-2.538c0-1.362-0.56-2.459-2.055-2.459  c-1.498,0-2.073,1.169-2.073,2.52C109.386,58.633,109.942,59.758,111.439,59.758z M118.38,59.624h0.726v-0.599h-0.331  c-0.176,0-0.299-0.083-0.299-0.29v-3.672c0-0.165-0.082-0.239-0.248-0.239c-0.32,0-0.857,0.074-1.414,0.074l0.124,0.608h0.569v2.909  c-0.3,0.25-0.723,0.496-1.126,0.496c-0.423,0-0.608-0.227-0.608-0.69v-3.158c0-0.165-0.083-0.239-0.247-0.239  c-0.321,0-0.859,0.074-1.415,0.074l0.124,0.608h0.568v2.796c0,0.433,0.061,0.816,0.278,1.072c0.228,0.28,0.568,0.384,0.939,0.384  c0.619,0,1.176-0.289,1.579-0.673C117.682,59.501,117.991,59.624,118.38,59.624z M122.272,55.589c0.867,0,1.023,0.949,1.023,1.621  c0,1.34-0.372,1.806-1.064,1.806c-0.475,0-0.886-0.332-0.886-1.023v-1.98C121.644,55.733,121.954,55.589,122.272,55.589z   M122.437,59.758c1.229,0,1.889-0.982,1.889-2.538c0-1.477-0.672-2.459-1.711-2.459c-0.393,0-0.859,0.145-1.27,0.498v-0.196  c0-0.176-0.083-0.239-0.247-0.239c-0.332,0-0.867,0.074-1.414,0.074l0.123,0.608h0.568v5.532c0,0.185-0.084,0.257-0.26,0.257h-0.349  v0.63h0.826c0.566,0,0.753-0.319,0.753-0.785v-1.743C121.623,59.633,121.985,59.758,122.437,59.758z"/>
<path fill="#DC6233" d="M56.074,24.294v-1.052c-0.004,0.175-0.012,0.35-0.012,0.526S56.07,24.12,56.074,24.294"/>
<path fill="#E15F26" d="M56.074,8.389V0.972L41.557,0.971c0,0,0,13.139,0,17.167c-3.492,0-7.636,0-11.139,0  c0-4.028,0-17.167,0-17.167H15.885l-0.006,45.238h14.539c0,0,0-14.394,0-18.795c3.503,0,7.647,0,11.139,0c0,4.401,0,18.795,0,18.795  h14.517v-7.088c-3.398-4.135-5.41-9.489-5.41-15.353C50.664,17.905,52.676,12.537,56.074,8.389"/>
<path fill="#E77E1D" d="M73.965,4.81c-10.009,0-17.637,8.213-17.891,18.432V8.389C60.277,3.26,66.604,0,73.895,0  c6.765,0,12.648,2.638,17.022,7.26c-0.751,0.678-3.007,2.579-4.036,3.463C83.53,7.122,79.229,4.81,73.965,4.81 M96.796,21.462  H72.123v4.682h19.209c-0.625,8.499-7.255,16.512-17.367,16.512c-10.009,0-17.637-8.142-17.891-18.362v14.827  c4.203,5.111,10.53,8.355,17.821,8.355c13.193,0,22.972-10.596,22.972-23.708C96.867,22.887,96.867,22.004,96.796,21.462z"/>
<path fill="#C5281C" d="M56.062,23.768c0-0.176,0.008-0.351,0.012-0.526V8.389c-3.398,4.148-5.41,9.516-5.41,15.379  c0,5.864,2.012,11.218,5.41,15.353V24.294C56.07,24.12,56.062,23.944,56.062,23.768"/>
<rect x="0.06" y="0.971" fill="#D81921" width="14.387" height="45.238"/>
</svg>