<?xml version="1.0" encoding="utf-8"?>
<!-- Generator: Adobe Illustrator 27.4.0, SVG Export Plug-In . SVG Version: 6.00 Build 0)  -->
<svg version="1.1" id="Graphic" xmlns="http://www.w3.org/2000/svg" xmlns:xlink="http://www.w3.org/1999/xlink" x="0px" y="0px"
	 viewBox="0 0 546.4 84" style="enable-background:new 0 0 546.4 84;" xml:space="preserve">
<style type="text/css">
	.st0{fill:#0D57E2;}
</style>
<g>
	<path class="st0" d="M106.8,0c-13.2-0.3-25.1,5.6-33,15C66,5.6,54.1-0.3,40.9,0C18,0.5,0,19.9,0,42.8v37.7C0,82.4,1.6,84,3.5,84H16
		c1.9,0,3.5-1.6,3.5-3.5v-38c0-11.6,8.6-21.8,20.2-22.9c13.3-1.2,24.5,9.2,24.5,22.2v23.6c0,5.1,3.7,9.6,8.8,10.1
		c5.8,0.6,10.7-4,10.7-9.7V42.5c0-11.6,8.6-21.8,20.2-22.9c13.3-1.2,24.5,9.2,24.5,22.2v39.2c0,1.6,1.3,3,3,3h13.6c1.6,0,3-1.3,3-3
		V42.8C147.7,19.9,129.7,0.5,106.8,0z"/>
	<path class="st0" d="M466,0c-13.2-0.3-25.1,5.6-33,15c-7.9-9.4-19.7-15.3-33-15c-22.9,0.5-40.9,19.9-40.9,42.8v37.7
		c0,1.9,1.6,3.5,3.5,3.5h12.5c1.9,0,3.5-1.6,3.5-3.5v-38c0-11.6,8.6-21.8,20.2-22.9c13.3-1.2,24.5,9.2,24.5,22.2v23.6
		c0,5.1,3.7,9.6,8.8,10.1c5.8,0.6,10.7-4,10.7-9.7V42.5c0-11.6,8.6-21.8,20.2-22.9c13.3-1.2,24.5,9.2,24.5,22.2v39.2
		c0,1.6,1.3,3,3,3H504c1.6,0,3-1.3,3-3V42.8C507,19.9,489,0.5,466,0z"/>
	<path class="st0" d="M536.7,0c-5.4,0-9.8,4.4-9.8,9.8v64.5c0,5.4,4.4,9.8,9.8,9.8s9.8-4.4,9.8-9.8V9.8C546.4,4.4,542,0,536.7,0z"/>
</g>
<path class="st0" d="M345.1,0.1h-13.3c-1.2,0-2.4,0.8-2.9,2l-22.3,53.4L284.4,2.1c-0.5-1.2-1.6-2-2.9-2h-13.3
	c-2.3,0-3.8,2.5-2.9,4.7l29.7,71.1c2,4.9,6.6,8,11.7,8c5,0,9.6-3.1,11.7-8L348,4.8C348.9,2.6,347.4,0.1,345.1,0.1L345.1,0.1z"/>
<path class="st0" d="M247.6,0.1h-13.1c-1.8,0-3.2,1.4-3.2,3.2v38.5c0,13-11.2,23.5-24.5,22.2c-11.6-1.1-20.2-11.2-20.2-22.9V3.1
	c0-1.6-1.3-3-3-3h-13.6c-1.6,0-3,1.3-3,3v37.8c0,22.6,17.6,42,40.2,42.8c23.8,0.9,43.4-18.2,43.4-41.8V3.3
	C250.9,1.6,249.4,0.1,247.6,0.1L247.6,0.1z"/>
</svg>
