<?xml version="1.0" encoding="UTF-8"?><svg id="b" xmlns="http://www.w3.org/2000/svg" width="240" height="96" viewBox="0 0 240 96"><defs><style>.d{fill:#1e63af;}</style></defs><g id="c"><path class="d" d="m28.73,58.3C11.24,58.3,0,47.72,0,29.36,0,12.1,12.91,0,28.73,0h96.19c-3.33,10.3-7.77,20.59-27.21,20.59H29.98c-5.14,0-9.3,3.48-9.3,8.63s4.16,8.35,9.3,8.35h66.21c17.63,0,28.73,10.57,28.73,28.94,0,17.39-12.91,29.36-28.73,29.36l-96.19.14c3.33-10.3,7.77-20.59,27.21-20.59h67.74c5.14,0,9.3-3.34,9.3-8.49s-4.16-8.49-9.3-8.49l-66.21-.14Zm96.19,37.57h20.68v-28.8c0-5.15,4.16-8.63,9.3-8.63h85.09v-20.73h-86.2c-16.1,0-28.87,12.1-28.87,29.36v28.8ZM239.86,0h-114.93c3.33,10.3,7.77,20.59,27.21,20.59h87.73V0Z"/></g></svg>