<svg width="139" height="53" viewBox="0 0 139 53" fill="none" xmlns="http://www.w3.org/2000/svg">
<path d="M52.331 0H0.0828857V52.2481H52.331V0Z" fill="#E53E51"/>
<path d="M45.2629 28.2385H43.8495V29.652H45.2629V28.2385Z" fill="white"/>
<path d="M28.3316 18.365L24.6288 26.8358H26.1517L27.0077 24.845H30.9893L31.8454 26.8358H33.4081L29.7053 18.365H28.3316ZM27.5453 23.5112L28.9885 20.1468L30.4418 23.5112H27.5453Z" fill="white"/>
<path d="M37.5483 28.249L33.8455 36.7198H35.3585L36.2245 34.729H40.206L41.0521 36.7198H42.6149L38.922 28.249H37.5483ZM36.7619 33.3951L38.2053 30.0307L39.6586 33.3951H36.7619Z" fill="white"/>
<path d="M38.5043 26.9348C39.7988 26.9355 41.05 26.469 42.028 25.621V22.0774H39.1414L38.6138 23.3614H40.6046V24.9441C40.0095 25.3682 39.2947 25.5913 38.5641 25.5811C38.1749 25.5886 37.7883 25.5157 37.4287 25.3668C37.069 25.2179 36.7439 24.9963 36.4739 24.716C36.2038 24.4357 35.9945 24.1026 35.8592 23.7376C35.7239 23.3726 35.6654 22.9836 35.6874 22.595C35.67 22.2181 35.7275 21.8416 35.8565 21.487C35.9854 21.1325 36.1833 20.807 36.4387 20.5294C36.6942 20.2517 37.0021 20.0275 37.3446 19.8695C37.6872 19.7115 38.0577 19.6228 38.4347 19.6088C38.8682 19.5971 39.2997 19.6711 39.7045 19.8266C40.1093 19.982 40.4795 20.2158 40.7938 20.5146L41.7892 19.3898C40.8975 18.6009 39.7335 18.1903 38.5442 18.2451C37.9694 18.2371 37.3989 18.3443 36.8663 18.5606C36.3337 18.7768 35.8499 19.0977 35.4434 19.5042C35.0369 19.9106 34.7161 20.3944 34.4998 20.927C34.2836 21.4596 34.1763 22.0302 34.1843 22.6049C34.1631 23.184 34.2621 23.7611 34.4752 24.3C34.6883 24.8388 35.0109 25.3275 35.4225 25.7353C35.8341 26.1432 36.3258 26.4613 36.8665 26.6695C37.4072 26.8777 37.9853 26.9713 38.5641 26.9448" fill="white"/>
<path d="M19.8519 26.8362H21.2554V19.759H23.3756L24.789 18.3555H21.2554H19.8519H17.7317L16.3182 19.759H19.8519V26.8362Z" fill="white"/>
<path d="M19.8519 28.2385H17.7317L16.3182 29.642H19.8519V36.7192H21.2554V29.642H23.3756L24.789 28.2385H21.2554H19.8519Z" fill="white"/>
<path d="M45.2629 31.0659H43.8495V36.7197H45.2629V31.0659Z" fill="white"/>
<path d="M25.4939 28.2385V36.7192H26.9073V33.1856V28.2385H25.4939Z" fill="white"/>
<path d="M31.1374 31.7722H28.3204L26.907 33.1856H31.1374V36.7192H32.5509V33.1856V31.7722V28.2385H31.1374V31.7722Z" fill="white"/>
<path d="M7.13953 19.759H10.6732V26.8362H12.0767V19.759H14.2068L15.6103 18.3555H8.55298L7.13953 19.759Z" fill="#A12B2F"/>
<path d="M7.13953 29.642H10.6732V36.7192H12.0767V29.642H14.2068L15.6103 28.2385H8.55298L7.13953 29.642Z" fill="#A12B2F"/>
<path d="M21.2631 12.7109H19.8496V16.9513H21.2631V12.7109Z" fill="#A12B2F"/>
<path d="M12.0862 12.7109H10.6727V16.9513H12.0862V12.7109Z" fill="#A12B2F"/>
<path d="M71.5408 29.5431C72.7118 29.5431 73.661 28.5939 73.661 27.4229C73.661 26.252 72.7118 25.3027 71.5408 25.3027C70.3699 25.3027 69.4207 26.252 69.4207 27.4229C69.4207 28.5939 70.3699 29.5431 71.5408 29.5431Z" fill="white"/>
<path d="M71.5023 18.0857C69.1102 18.0886 66.8114 19.0145 65.085 20.6704C63.3586 22.3263 62.3378 24.5846 62.2352 26.9745V45.6481C63.191 45.6497 64.1113 45.2857 64.8072 44.6305C65.5031 43.9753 65.922 43.0786 65.9779 42.1244V27.0641C66.0258 26.3033 66.2298 25.5606 66.5771 24.8821C66.9245 24.2035 67.4078 23.6037 67.997 23.1201C68.5862 22.6364 69.2686 22.2792 70.0018 22.0707C70.735 21.8621 71.5033 21.8068 72.2588 21.908C73.4711 22.0749 74.5948 22.6361 75.4564 23.5049C76.3181 24.3738 76.8699 25.5021 77.0267 26.7157C77.1296 27.5167 77.0571 28.3304 76.8145 29.1006C76.5718 29.8708 76.1647 30.5791 75.6213 31.1764C75.0779 31.7738 74.4113 32.246 73.6674 32.5603C72.9236 32.8745 72.1203 33.0235 71.3132 32.9967C71.0648 32.9967 70.8189 33.0455 70.5894 33.1406C70.36 33.2356 70.1515 33.3749 69.9759 33.5505C69.8003 33.7262 69.661 33.9347 69.5659 34.1642C69.4709 34.3936 69.422 34.6395 69.422 34.8879C69.4207 35.349 69.5879 35.7948 69.8922 36.1412C70.1965 36.4877 70.6169 36.7109 71.0743 36.7692H71.5023C72.7309 36.7731 73.9481 36.5341 75.0838 36.0658C76.2196 35.5974 77.2515 34.9092 78.1202 34.0405C78.989 33.1718 79.6773 32.1398 80.1456 31.004C80.6139 29.8682 80.853 28.651 80.8491 27.4224C80.8491 26.1955 80.6072 24.9806 80.1374 23.8471C79.6676 22.7137 78.9789 21.684 78.1109 20.8168C77.2428 19.9497 76.2124 19.2622 75.0784 18.7935C73.9445 18.3249 72.7293 18.0844 71.5023 18.0857Z" fill="white"/>
<path d="M103.185 36.7003V26.9753C103.085 24.595 102.069 22.3455 100.35 20.6965C98.6303 19.0476 96.3402 18.1267 93.9579 18.1262C92.737 18.1262 91.528 18.3667 90.4 18.8339C89.2721 19.3012 88.2472 19.986 87.3839 20.8493C86.5206 21.7126 85.8358 22.7374 85.3686 23.8654C84.9014 24.9934 84.6609 26.2022 84.6609 27.4231C84.657 28.6456 84.8947 29.8569 85.3604 30.9872C85.8261 32.1175 86.5106 33.1446 87.3745 34.0095C88.2385 34.8743 89.2648 35.5599 90.3946 36.0269C91.5244 36.4938 92.7354 36.7328 93.9579 36.7301C94.9789 36.7113 95.985 36.4803 96.912 36.0519C97.8391 35.6235 98.6669 35.0071 99.343 34.2417C99.3583 34.2254 99.3782 34.2142 99.4 34.2096C99.4218 34.205 99.4445 34.2071 99.4651 34.2158C99.4857 34.2245 99.5032 34.2392 99.5151 34.2581C99.5271 34.2769 99.533 34.2989 99.5321 34.3213C99.5373 34.954 99.7924 35.559 100.242 36.0046C100.691 36.4502 101.298 36.7003 101.931 36.7003H103.185ZM99.4126 28.1399C99.262 29.3497 98.714 30.4751 97.8547 31.3398C96.9954 32.2045 95.8734 32.7595 94.6646 32.9177C93.823 33.0268 92.9676 32.9413 92.1643 32.6678C91.361 32.3942 90.6313 31.94 90.0312 31.3399C89.4312 30.7399 88.9769 30.0101 88.7033 29.2068C88.4298 28.4035 88.3443 27.548 88.4534 26.7065C88.6121 25.4999 89.1626 24.3789 90.0205 23.5157C90.8783 22.6525 91.9958 22.0949 93.2013 21.9286C94.0437 21.8154 94.9008 21.898 95.706 22.1701C96.5112 22.4422 97.2428 22.8965 97.8438 23.4975C98.4448 24.0985 98.899 24.83 99.1711 25.6352C99.4432 26.4404 99.5258 27.2976 99.4126 28.1399Z" fill="white"/>
<path d="M120.196 29.891C118.653 24.9638 110.72 27.4821 111.088 23.3413C111.088 22.6644 112.084 21.8781 113.318 21.689C114.458 21.4911 115.63 21.7291 116.603 22.3558C116.917 22.6319 117.319 22.7872 117.737 22.7938C118.205 22.7938 118.653 22.6082 118.983 22.2778C119.314 21.9474 119.499 21.4993 119.499 21.032C119.493 20.7452 119.417 20.4642 119.276 20.2142C119.135 19.9641 118.935 19.7527 118.693 19.5987C117.838 18.9872 116.867 18.5576 115.84 18.3367C114.813 18.1159 113.751 18.1083 112.721 18.3146C106.43 19.31 105.265 26.2777 110.839 28.5472C113.467 29.6023 116.334 29.3037 116.593 31.0655C116.782 32.4989 115.01 33.1758 113.606 33.1758C112.61 33.1461 111.641 32.8393 110.809 32.2898C110.539 32.1238 110.231 32.0312 109.914 32.0211C109.672 32.0211 109.433 32.0689 109.21 32.1615C108.988 32.2542 108.785 32.3899 108.615 32.561C108.445 32.7322 108.31 32.9353 108.219 33.1586C108.127 33.382 108.081 33.6213 108.082 33.8626C108.086 34.1543 108.16 34.4407 108.299 34.6973C108.437 34.9539 108.636 35.1731 108.878 35.3358C113.756 38.6305 122.057 35.8136 120.196 29.891Z" fill="white"/>
<path d="M137.744 29.891C136.201 24.9638 128.258 27.4821 128.636 23.3413C128.636 22.6644 129.632 21.8781 130.856 21.689C131.996 21.4901 133.169 21.7282 134.141 22.3558C134.451 22.6328 134.85 22.7883 135.266 22.7938C135.733 22.7938 136.181 22.6082 136.512 22.2778C136.842 21.9474 137.028 21.4993 137.028 21.032C137.022 20.7452 136.945 20.4642 136.804 20.2142C136.664 19.9641 136.463 19.7527 136.221 19.5987C135.367 18.9872 134.396 18.5576 133.368 18.3367C132.341 18.1159 131.279 18.1083 130.249 18.3146C123.958 19.31 122.793 26.2777 128.368 28.5472C130.995 29.6023 133.862 29.3037 134.121 31.0655C134.31 32.4989 132.538 33.1758 131.135 33.1758C130.141 33.1479 129.175 32.8409 128.348 32.2898C128.078 32.1238 127.769 32.0312 127.452 32.0211C126.965 32.0237 126.499 32.2189 126.156 32.564C125.813 32.909 125.62 33.376 125.62 33.8626C125.624 34.1554 125.7 34.4426 125.84 34.6995C125.981 34.9563 126.182 35.1748 126.427 35.3358C131.294 38.6305 139.596 35.8136 137.744 29.891Z" fill="white"/>
</svg>
